<?xml version="1.0" encoding="utf-8" ?>
<svg xmlns="http://www.w3.org/2000/svg" xmlns:xlink="http://www.w3.org/1999/xlink" width="120" height="120">
	<defs>
		<clipPath id="clip_0">
			<rect x="-128" y="-192" width="375" height="667" clip-rule="evenodd"/>
		</clipPath>
		<linearGradient id="gradient_0" gradientUnits="userSpaceOnUse" x1="0" y1="2.0670557e-14" x2="120" y2="120">
			<stop offset="0" stop-color="rgb(239,79,103)"/>
			<stop offset="1" stop-color="rgb(252,81,72)"/>
		</linearGradient>
	</defs>
	<g clip-path="url(#clip_0)">
		<path fill="url(#gradient_0)" stroke="none" d="M60 0C26.8621 0 0 26.8621 0 60C0 93.1379 26.8621 120 60 120C93.1379 120 120 93.1379 120 60C120 26.8621 93.1379 0 60 0ZM11.6129 60C11.6129 86.6806 33.3194 108.387 60 108.387C86.6806 108.387 108.387 86.6806 108.387 60C108.387 33.3194 86.6806 11.6129 60 11.6129C33.3194 11.6129 11.6129 33.3194 11.6129 60ZM49.2581 45.4427L84.179 29.4823C88.2097 27.6411 92.3589 31.7903 90.5177 35.821L74.5573 70.7419C73.7853 72.4309 72.4309 73.7853 70.7419 74.5573L35.821 90.5177C31.7903 92.3589 27.6411 88.2073 29.4823 84.179L45.4427 49.2581C46.2147 47.5691 47.5691 46.2147 49.2581 45.4427ZM54.5371 65.4629C57.554 68.4798 62.446 68.4798 65.4629 65.4629C68.4798 62.446 68.4798 57.554 65.4629 54.5371C62.446 51.5202 57.554 51.5202 54.5371 54.5371C51.5202 57.554 51.5202 62.446 54.5371 65.4629Z" fill-rule="evenodd"/>
	</g>
</svg>
